<svg width="73" height="84" viewBox="0 0 73 84" fill="none" xmlns="http://www.w3.org/2000/svg">
<g clip-path="url(#clip0_1_55)">
<path d="M70.4551 24.451V75.0999C70.4551 76.9526 69.6938 78.7295 68.3388 80.0396C66.9837 81.3497 65.1459 82.0858 63.2295 82.0858H9.03815C9.03815 82.0858 1.81262 82.0858 1.81262 75.0999V8.73256C1.81262 6.87974 2.57389 5.10282 3.92893 3.79268C5.28398 2.48255 7.12182 1.74652 9.03815 1.74652H46.9721V17.4651C46.9721 19.3178 47.7334 21.0947 49.0884 22.4049C50.4435 23.715 52.2813 24.451 54.1977 24.451H70.4551Z" fill="white"/>
<path d="M70.4551 24.451H54.1977C52.2813 24.451 50.4435 23.715 49.0884 22.4049C47.7334 21.0947 46.9721 19.3178 46.9721 17.4651V1.74652L70.4551 24.451Z" fill="#D0D7DF"/>
<path d="M72.1206 23.7787C72.0306 23.5685 71.8986 23.3773 71.7323 23.2164L48.2493 0.511726C47.9106 0.18417 47.4512 9.89176e-05 46.9721 0H9.03814C6.64361 0.00277321 4.34797 0.923696 2.65479 2.56076C0.961602 4.19784 0.0091075 6.41738 0.00623923 8.73253V75.0999C-0.0391425 76.2584 0.163431 77.4135 0.601266 78.4929C1.0391 79.5721 1.70277 80.5525 2.55067 81.3722C3.39859 82.1921 4.41248 82.8337 5.52881 83.2571C6.64515 83.6804 7.83988 83.8763 9.03814 83.8323H63.2295C65.6242 83.8295 67.9198 82.9087 69.613 81.2716C71.306 79.6345 72.2586 77.415 72.2615 75.0999V24.451C72.2615 24.2202 72.2137 23.9915 72.1206 23.7787ZM63.2295 80.3394H9.04718C8.32472 80.3776 7.60203 80.2683 6.92613 80.0186C6.25024 79.769 5.63629 79.3845 5.12424 78.8903C4.6122 78.396 4.21353 77.8031 3.95419 77.1501C3.69485 76.497 3.58064 75.7983 3.619 75.0999V8.73253C3.619 7.34293 4.18994 6.01024 5.20623 5.02763C6.22251 4.04503 7.6009 3.49301 9.03814 3.49301H46.2243L66.0945 22.7046H54.1977C52.7604 22.7046 51.382 22.1525 50.3658 21.17C49.3494 20.1873 48.7785 18.8547 48.7785 17.4651V12.2256C48.7785 11.7623 48.5883 11.3181 48.2494 10.9906C47.9108 10.6631 47.4512 10.479 46.9721 10.479C46.4931 10.479 46.0336 10.6631 45.6949 10.9906C45.3561 11.3181 45.1658 11.7623 45.1658 12.2256V17.4651C45.1686 19.7802 46.1212 21.9998 47.8144 23.6369C49.5076 25.2739 51.8032 26.1948 54.1977 26.1976H68.6487V75.0999C68.6487 76.4895 68.0778 77.8221 67.0614 78.8047C66.0452 79.7873 64.6668 80.3394 63.2295 80.3394Z" fill="#474C54"/>
<path d="M59.6168 41.9162H12.6509C12.1718 41.9162 11.7124 42.1001 11.3736 42.4277C11.0348 42.7552 10.8445 43.1995 10.8445 43.6627C10.8445 44.1258 11.0348 44.5701 11.3736 44.8976C11.7124 45.2252 12.1718 45.4091 12.6509 45.4091H59.6168C60.096 45.4091 60.5553 45.2252 60.8942 44.8976C61.2329 44.5701 61.4233 44.1258 61.4233 43.6627C61.4233 43.1995 61.2329 42.7552 60.8942 42.4277C60.5553 42.1001 60.096 41.9162 59.6168 41.9162Z" fill="#474C54"/>
<path d="M59.6168 52.3952H12.6509C12.1718 52.3952 11.7124 52.5791 11.3736 52.9067C11.0348 53.2342 10.8445 53.6785 10.8445 54.1418C10.8445 54.6049 11.0348 55.0492 11.3736 55.3766C11.7124 55.7042 12.1718 55.8882 12.6509 55.8882H59.6168C60.096 55.8882 60.5553 55.7042 60.8942 55.3766C61.2329 55.0492 61.4233 54.6049 61.4233 54.1418C61.4233 53.6785 61.2329 53.2342 60.8942 52.9067C60.5553 52.5791 60.096 52.3952 59.6168 52.3952Z" fill="#474C54"/>
<path d="M59.6168 61.1277H56.0041C55.525 61.1277 55.0654 61.3118 54.7268 61.6392C54.3879 61.9668 54.1977 62.411 54.1977 62.8742C54.1977 63.3375 54.3879 63.7816 54.7268 64.1093C55.0654 64.4367 55.525 64.6208 56.0041 64.6208H59.6168C60.096 64.6208 60.5553 64.4367 60.8942 64.1093C61.2329 63.7816 61.4233 63.3375 61.4233 62.8742C61.4233 62.411 61.2329 61.9668 60.8942 61.6392C60.5553 61.3118 60.096 61.1277 59.6168 61.1277Z" fill="#474C54"/>
<path d="M48.7785 61.1277H45.1658C44.6867 61.1277 44.2271 61.3118 43.8885 61.6392C43.5496 61.9668 43.3594 62.411 43.3594 62.8742C43.3594 63.3375 43.5496 63.7816 43.8885 64.1093C44.2271 64.4367 44.6867 64.6208 45.1658 64.6208H48.7785C49.2577 64.6208 49.717 64.4367 50.0559 64.1093C50.3946 63.7816 50.585 63.3375 50.585 62.8742C50.585 62.411 50.3946 61.9668 50.0559 61.6392C49.717 61.3118 49.2577 61.1277 48.7785 61.1277Z" fill="#474C54"/>
</g>
<defs>
<clipPath id="clip0_1_55">
<rect width="72.313" height="84" fill="white"/>
</clipPath>
</defs>
</svg>
